<?xml version="1.0" standalone="no"?>
<!DOCTYPE svg PUBLIC "-//W3C//DTD SVG 20010904//EN"
 "http://www.w3.org/TR/2001/REC-SVG-20010904/DTD/svg10.dtd">
<svg version="1.0" xmlns="http://www.w3.org/2000/svg"
 width="520.000000pt" height="188.000000pt" viewBox="0 0 520.000000 188.000000"
 preserveAspectRatio="xMidYMid meet">
<metadata>
Created by potrace 1.16, written by Peter Selinger 2001-2019
</metadata>
<g transform="translate(0.000000,188.000000) scale(0.100000,-0.100000)"
fill="#000000" stroke="none">
<path d="M1063 1519 c-113 -22 -204 -92 -256 -198 l-32 -66 -3 -317 c-3 -266
-1 -327 13 -380 28 -110 97 -192 203 -241 46 -21 58 -22 402 -22 l355 0 67 33
c77 38 130 92 167 171 l26 56 3 329 c3 308 2 332 -17 396 -37 119 -140 211
-269 239 -62 13 -594 13 -659 0z m681 -245 c14 -13 16 -59 16 -344 0 -285 -2
-331 -16 -344 -13 -14 -47 -16 -218 -16 -190 0 -204 -1 -221 -20 -10 -11 -25
-20 -34 -20 -9 0 -61 46 -117 103 -111 113 -142 167 -130 231 15 81 99 132
169 102 l37 -15 1 37 c1 20 2 87 3 148 2 164 -15 154 267 154 194 0 230 -2
243 -16z"/>
<path d="M1283 1253 c-8 -2 -13 -22 -13 -44 l0 -39 230 0 230 0 0 33 c0 18 -5
38 -12 45 -9 9 -70 12 -217 11 -114 0 -212 -3 -218 -6z m317 -43 c0 -6 -40
-10 -99 -10 -56 0 -103 4 -106 10 -4 6 32 10 99 10 64 0 106 -4 106 -10z"/>
<path d="M1270 1030 c0 -55 3 -100 6 -100 3 0 17 9 30 19 36 28 94 35 138 17
71 -29 96 -118 56 -196 l-20 -40 125 0 125 0 0 200 0 200 -230 0 -230 0 0
-100z"/>
<path d="M1103 928 c-24 -12 -45 -55 -45 -93 0 -40 45 -105 132 -189 l83 -80
96 100 c106 109 127 148 110 209 -5 19 -20 41 -32 50 -42 29 -123 12 -150 -32
-11 -18 -42 -16 -58 3 -32 39 -92 53 -136 32z"/>
<path d="M1400 645 l-44 -45 175 0 c192 0 199 2 199 57 l0 33 -143 0 -143 0
-44 -45z m134 13 c8 -14 7 -21 -6 -34 -30 -30 -75 9 -48 42 16 18 39 15 54 -8z"/>
<path d="M1490 645 c0 -8 7 -15 15 -15 8 0 15 7 15 15 0 8 -7 15 -15 15 -8 0
-15 -7 -15 -15z"/>
<path d="M3930 1324 c0 -50 -2 -55 -17 -49 -88 36 -133 -2 -133 -110 0 -47 4
-60 26 -81 21 -22 31 -25 62 -20 20 4 52 7 70 6 l32 0 0 155 c0 148 -1 155
-20 155 -18 0 -20 -7 -20 -56z m-19 -84 c25 -14 27 -95 2 -122 -36 -40 -93 -9
-93 51 0 66 41 97 91 71z"/>
<path d="M3193 1354 c-6 -17 14 -36 32 -31 6 2 11 13 13 25 3 17 -2 22 -18 22
-11 0 -23 -7 -27 -16z"/>
<path d="M2330 1340 c0 -17 7 -20 45 -20 l45 0 0 -125 0 -125 25 0 24 0 3 123
3 122 43 3 c34 3 42 7 42 23 0 18 -8 19 -115 19 -108 0 -115 -1 -115 -20z"/>
<path d="M2920 1341 c0 -17 8 -20 48 -23 l47 -3 3 -122 c2 -114 4 -123 22
-123 18 0 20 9 22 123 l3 122 43 3 c34 3 42 7 42 23 0 18 -8 19 -115 19 -107
0 -115 -1 -115 -19z"/>
<path d="M2597 1283 c-4 -3 -7 -48 -7 -98 0 -76 3 -95 18 -108 24 -22 61 -22
92 0 17 12 25 13 28 5 2 -7 12 -12 23 -12 18 0 19 8 19 105 0 98 -1 105 -20
105 -18 0 -20 -7 -20 -75 l0 -75 -35 -17 c-54 -26 -65 -9 -65 93 0 63 -3 84
-13 84 -8 0 -17 -3 -20 -7z"/>
<path d="M3343 1280 c-30 -12 -45 -45 -46 -101 -1 -85 43 -128 120 -116 49 8
70 29 48 47 -12 10 -19 10 -27 2 -28 -28 -98 -4 -98 34 0 15 6 17 62 14 62 -3
78 7 78 46 0 66 -67 102 -137 74z m89 -44 c18 -27 7 -36 -42 -36 -52 0 -58 5
-37 32 22 28 62 30 79 4z"/>
<path d="M3553 1283 c-9 -3 -13 -35 -13 -109 0 -97 1 -104 20 -104 18 0 20 7
20 74 0 67 2 75 25 90 31 20 61 21 69 0 3 -9 6 -49 6 -90 0 -67 2 -74 20 -74
19 0 20 7 20 93 0 78 -3 97 -18 110 -23 21 -62 22 -88 2 -25 -19 -34 -19 -34
0 0 15 -6 17 -27 8z"/>
<path d="M4052 1274 c-18 -12 -20 -19 -11 -30 8 -10 16 -11 31 -3 10 6 33 9
51 7 24 -2 33 -8 35 -25 3 -20 -1 -23 -28 -23 -50 0 -96 -24 -104 -55 -15 -59
51 -104 106 -72 15 9 28 11 28 6 0 -6 10 -9 22 -7 20 3 21 8 19 93 -1 77 -5
92 -22 108 -27 22 -97 23 -127 1z m108 -129 c0 -46 -82 -63 -88 -17 -4 24 22
40 66 41 17 1 22 -5 22 -24z"/>
<path d="M3200 1206 c0 -40 -3 -88 -6 -105 -6 -28 -4 -31 20 -31 l26 0 0 105
c0 98 -1 105 -20 105 -18 0 -20 -7 -20 -74z"/>
<path d="M3270 835 c0 -148 1 -155 20 -155 19 0 20 7 20 155 0 148 -1 155 -20
155 -19 0 -20 -7 -20 -155z"/>
<path d="M3152 963 c2 -10 13 -19 26 -21 17 -3 22 2 22 17 0 16 -6 21 -26 21
-19 0 -25 -5 -22 -17z"/>
<path d="M2360 825 c0 -138 1 -145 20 -145 18 0 20 8 22 108 l3 107 38 -73
c21 -41 43 -72 50 -70 7 2 29 35 49 74 l37 69 1 -107 0 -108 25 0 25 0 0 145
0 145 -30 0 c-27 0 -33 -7 -69 -77 l-39 -78 -38 78 c-34 68 -41 77 -66 77
l-28 0 0 -145z"/>
<path d="M2723 885 c-31 -22 -47 -85 -33 -133 14 -54 43 -77 95 -77 52 0 81
23 95 77 14 48 -2 111 -33 133 -12 8 -40 15 -62 15 -22 0 -50 -7 -62 -15z
m107 -44 c15 -29 12 -83 -6 -109 -33 -48 -94 -12 -94 56 0 52 15 72 55 72 24
0 38 -6 45 -19z"/>
<path d="M2920 891 c0 -5 16 -55 36 -111 32 -88 40 -101 58 -98 16 2 28 24 58
103 20 55 37 104 37 108 1 5 -9 7 -21 5 -17 -2 -26 -18 -46 -76 -13 -41 -28
-70 -32 -65 -4 4 -17 38 -30 76 -17 52 -26 67 -41 67 -10 0 -19 -4 -19 -9z"/>
<path d="M3160 790 c0 -103 1 -110 20 -110 19 0 20 7 20 110 0 103 -1 110 -20
110 -19 0 -20 -7 -20 -110z"/>
<path d="M2895 540 c-3 -5 -1 -10 4 -10 6 0 11 5 11 10 0 6 -2 10 -4 10 -3 0
-8 -4 -11 -10z"/>
<path d="M4121 483 c0 -39 3 -74 7 -77 5 -3 7 23 5 57 -6 93 -11 101 -12 20z"/>
<path d="M4405 540 c-3 -5 -1 -10 4 -10 6 0 11 5 11 10 0 6 -2 10 -4 10 -3 0
-8 -4 -11 -10z"/>
<path d="M2342 468 l-2 -68 38 2 c36 1 36 1 5 5 -32 4 -32 5 -36 66 l-3 62 -2
-67z"/>
<path d="M2632 463 l2 -68 3 59 4 60 25 -30 24 -29 22 30 23 30 6 -60 6 -60 1
68 c1 37 -2 67 -7 67 -5 0 -19 -12 -30 -27 l-21 -28 -21 28 c-11 15 -25 27
-30 27 -5 0 -8 -30 -7 -67z"/>
<path d="M3547 523 c19 -4 23 -12 26 -66 l3 -62 2 62 c2 55 4 62 25 66 12 2 0
4 -28 4 -27 0 -40 -2 -28 -4z"/>
<path d="M2452 494 c-41 -28 -19 -94 32 -94 28 0 56 29 56 58 0 20 -33 52 -55
52 -6 0 -21 -7 -33 -16z m73 -24 c22 -36 -42 -77 -72 -47 -20 19 -10 64 15 70
19 4 47 -7 57 -23z"/>
<path d="M2802 494 c-28 -20 -30 -69 -3 -84 24 -12 58 -13 65 -1 3 4 -6 6 -19
3 -25 -4 -55 12 -55 29 0 5 18 9 39 9 48 0 58 13 31 40 -24 24 -29 25 -58 4z
m58 -19 c0 -10 -11 -15 -35 -15 -33 0 -43 8 -28 23 13 14 63 7 63 -8z"/>
<path d="M2952 494 c-27 -18 -29 -55 -4 -77 37 -34 92 -11 92 38 0 23 -32 55
-55 55 -6 0 -21 -7 -33 -16z m73 -24 c7 -23 -3 -47 -22 -54 -46 -18 -81 35
-44 65 24 20 58 15 66 -11z"/>
<path d="M3100 501 c-8 -6 -18 -7 -22 -5 -4 3 -7 -19 -6 -48 l1 -53 6 45 c5
40 9 45 34 48 15 2 25 8 22 13 -8 11 -16 11 -35 0z"/>
<path d="M3242 494 c-26 -18 -29 -56 -6 -78 16 -17 74 -22 74 -7 0 4 -11 6
-23 4 -15 -3 -31 2 -42 14 -18 17 -17 18 28 21 39 3 47 7 47 22 0 18 -26 40
-47 40 -5 0 -19 -7 -31 -16z m66 -21 c2 -9 -8 -13 -32 -13 -34 0 -44 8 -29 24
11 11 56 2 61 -11z"/>
<path d="M3380 501 c-8 -6 -18 -7 -22 -5 -4 3 -7 -19 -6 -48 l1 -53 6 45 c6
42 8 45 36 45 28 0 30 -3 36 -45 l6 -45 1 47 c2 37 -2 49 -17 58 -23 12 -22
12 -41 1z"/>
<path d="M3652 494 c-28 -20 -30 -69 -3 -84 24 -12 58 -13 65 -1 3 4 -6 6 -19
3 -25 -4 -55 12 -55 29 0 5 20 9 45 9 33 0 45 4 45 14 0 13 -36 46 -50 46 -3
0 -16 -7 -28 -16z m58 -19 c0 -10 -11 -15 -35 -15 -33 0 -43 8 -28 23 13 14
63 7 63 -8z"/>
<path d="M3772 494 c-28 -20 -30 -69 -3 -84 24 -12 61 -13 61 -1 0 5 -9 7 -20
4 -46 -12 -72 60 -27 76 12 5 28 6 36 3 9 -3 12 -1 7 6 -10 16 -27 15 -54 -4z"/>
<path d="M3890 501 c-8 -6 -18 -7 -22 -5 -4 3 -8 -18 -8 -47 0 -59 16 -57 22
1 3 30 7 35 30 38 24 3 28 -1 33 -35 10 -58 13 -62 14 -16 1 58 -30 88 -69 64z"/>
<path d="M4000 490 c-25 -25 -26 -52 -2 -73 21 -19 45 -21 73 -7 27 15 25 64
-3 84 -30 21 -44 20 -68 -4z m76 -26 c9 -35 -15 -59 -50 -50 -20 5 -26 13 -26
35 0 35 6 41 41 41 22 0 30 -6 35 -26z"/>
<path d="M4182 494 c-41 -28 -19 -94 32 -94 28 0 56 29 56 58 0 20 -33 52 -55
52 -6 0 -21 -7 -33 -16z m68 -23 c14 -27 3 -50 -27 -57 -34 -9 -58 16 -49 50
5 21 12 26 36 26 19 0 33 -7 40 -19z"/>
<path d="M4310 500 c-8 -5 -15 -26 -15 -54 -1 -25 -4 -49 -8 -52 -14 -14 14
-44 41 -44 69 0 83 56 16 62 -51 4 -56 26 -7 30 33 3 38 6 38 28 0 14 5 28 10
32 15 11 -57 9 -75 -2z m50 -15 c16 -19 4 -35 -25 -35 -32 0 -42 20 -20 37 24
17 30 16 45 -2z m14 -94 c9 -14 -21 -33 -46 -29 -12 2 -24 11 -26 21 -3 13 4
17 32 17 19 0 37 -4 40 -9z"/>
<path d="M4470 499 c-12 -9 -11 -10 6 -6 23 5 54 -8 54 -23 0 -5 -17 -10 -37
-12 -33 -3 -38 -6 -38 -28 0 -23 4 -25 45 -26 l45 -1 -3 41 c-5 56 -37 80 -72
55z m60 -57 c0 -14 -23 -32 -41 -32 -21 0 -33 16 -24 30 7 12 65 14 65 2z"/>
<path d="M2902 450 c-1 -31 -9 -65 -18 -78 -8 -12 -11 -22 -5 -22 20 0 32 41
28 98 l-3 57 -2 -55z"/>
<path d="M4413 450 c0 -30 2 -43 4 -27 2 15 2 39 0 55 -2 15 -4 2 -4 -28z"/>
</g>
</svg>
